<svg id="instagram_2_" data-name="instagram (2)" xmlns="http://www.w3.org/2000/svg" width="22.407" height="22.407" viewBox="0 0 22.407 22.407">
  <path id="Path_6217" data-name="Path 6217" d="M42.058,23.88H27.867a4.113,4.113,0,0,0-4.108,4.108V42.179a4.113,4.113,0,0,0,4.108,4.108H42.058a4.113,4.113,0,0,0,4.108-4.108V27.988A4.113,4.113,0,0,0,42.058,23.88Zm-7.1,18.58a7.376,7.376,0,1,1,7.377-7.377A7.385,7.385,0,0,1,34.962,42.46Zm7.614-13.228a1.745,1.745,0,1,1,1.745-1.745A1.747,1.747,0,0,1,42.576,29.232Z" transform="translate(-23.759 -23.88)" fill="#3a96f5"/>
  <path id="Path_6218" data-name="Path 6218" d="M41.109,36.971a4.259,4.259,0,1,0,4.259,4.259A4.265,4.265,0,0,0,41.109,36.971Z" transform="translate(-29.905 -30.027)" fill="#3a96f5"/>
</svg>
