<svg id="twitter_2_" data-name="twitter (2)" xmlns="http://www.w3.org/2000/svg" width="22.407" height="17.672" viewBox="0 0 22.407 17.672">
  <path id="Path_6216" data-name="Path 6216" d="M86.115,84.078a9.394,9.394,0,0,1-2.641.7,4.5,4.5,0,0,0,2.022-2.47,9.32,9.32,0,0,1-2.92,1.083,4.657,4.657,0,0,0-3.355-1.408,4.53,4.53,0,0,0-4.6,4.46,4.33,4.33,0,0,0,.119,1.018A13.186,13.186,0,0,1,65.269,82.8a4.333,4.333,0,0,0-.623,2.242,4.424,4.424,0,0,0,2.044,3.713,4.674,4.674,0,0,1-2.083-.559v.057A4.5,4.5,0,0,0,68.3,92.632a4.754,4.754,0,0,1-1.211.157,4.635,4.635,0,0,1-.864-.08,4.585,4.585,0,0,0,4.3,3.1,9.4,9.4,0,0,1-5.71,1.91,9.666,9.666,0,0,1-1.1-.062,13.3,13.3,0,0,0,7.048,2.005,12.792,12.792,0,0,0,13.08-12.7l-.013-.578A9.174,9.174,0,0,0,86.115,84.078Z" transform="translate(-63.708 -81.988)" fill="#3a96f5"/>
</svg>
