<svg xmlns="http://www.w3.org/2000/svg" width="22.38" height="20.855" viewBox="0 0 22.38 20.855">
  <g id="linkedin_2_" data-name="linkedin (2)" transform="translate(0 0)">
    <path id="Path_6209" data-name="Path 6209" d="M81.957,93.684h4.468V78.792H81.957ZM99.363,78.276a6.706,6.706,0,0,0-5.485,2.54V78.743H89.394V93.685h4.484V85.6A3.547,3.547,0,0,1,97.4,82.231c1.96,0,2.443,1.666,2.443,3.332v8.12h4.468V85.23C104.313,79.359,101.533,78.276,99.363,78.276ZM84.17,77.3a2.237,2.237,0,1,0-2.237-2.237A2.238,2.238,0,0,0,84.17,77.3Z" transform="translate(-81.933 -72.83)" fill="#3a96f5"/>
  </g>
</svg>
